# xmcd CD database file
#
# Track frame offsets:
#	150
#	14803
#	32658
#	51479
#	73266
#	91930
#	113748
#	132316
#	143884
#	158984
#
# Disc length: 2340 seconds
#
# Revision: 0
# Processed by: cddbd v1.4PL0 Copyright (c) Steve Scherf et al.
# Submitted via: CDex 1.50
#
DISCID=9209220a
DTITLE=Eva Cassidy - Imagine
DYEAR=1900
DGENRE=Jazz
TTITLE0=It Doesn't Matter Anymore
TTITLE1=Fever
TTITLE2=Who Knows Where The Time Goes
TTITLE3=You've Changed
TTITLE4=Imagine
TTITLE5=Still Not Ready
TTITLE6=Early Morning Rain
TTITLE7=Tennessee Waltz
TTITLE8=I Can Only Be Me
TTITLE9=Danny Boy
EXTD=
EXTT0=
EXTT1=
EXTT2=
EXTT3=
EXTT4=
EXTT5=
EXTT6=
EXTT7=
EXTT8=
EXTT9=
PLAYORDER=
